<svg width="140" height="51" viewBox="0 0 140 51" fill="none" xmlns="http://www.w3.org/2000/svg">
<g clip-path="url(#clip0_2094_3723)">
<path d="M25.0305 4.91735V4.98148C29.9284 4.99981 34.2827 7.35904 37.0469 10.9918L37.1977 10.9735C34.4015 7.25367 29.9558 4.84863 24.9665 4.84863C25.003 4.84863 25.0305 4.87612 25.0305 4.91277V4.91735Z" stroke="#BDC3CD" stroke-width="0.52"/>
<path d="M24.898 35.5095V35.4454C21.1834 35.4316 17.7749 34.0711 15.1386 31.8218L15.0609 31.8767C15.0609 31.8767 15.0381 31.8859 15.0244 31.8859C15.0244 31.8859 15.0107 31.8859 15.0061 31.8859C17.6881 34.1902 21.1651 35.5828 24.9619 35.5828C24.9254 35.5828 24.898 35.5553 24.898 35.5187V35.5095Z" stroke="#BDC3CD" stroke-width="0.52"/>
<path d="M40.1538 20.2137C40.1538 23.7136 38.9705 26.9432 36.983 29.5178H37.0195C37.0561 29.5178 37.0835 29.5453 37.0835 29.5819C37.0835 29.5911 37.0835 29.5957 37.0835 29.6002C39.0938 27.0028 40.2909 23.7457 40.2909 20.2091C40.2909 18.7432 40.0807 17.3231 39.6969 15.9717L39.5827 16.045C39.9574 17.3689 40.1584 18.7615 40.1584 20.2045V20.2137H40.1538Z" stroke="#BDC3CD" stroke-width="0.52"/>
<path d="M39.5416 15.9212L39.6558 15.8479C39.1441 14.1163 38.3354 12.5129 37.2891 11.0928L37.1383 11.1065C38.2074 12.5358 39.0253 14.1621 39.5416 15.9166V15.9212Z" stroke="#BDC3CD" stroke-width="0.52"/>
<path d="M14.9878 31.7623L15.0335 31.7348C11.8124 28.9404 9.77002 24.8129 9.77002 20.2135C9.77002 17.9642 10.2589 15.8341 11.1316 13.91H11.0905C11.0539 13.9192 11.0219 13.8963 11.0219 13.8551V13.8413C10.1355 15.7837 9.64209 17.9367 9.64209 20.2135C9.64209 24.8587 11.7073 29.0274 14.965 31.8447C14.9513 31.8173 14.965 31.7806 14.9878 31.7623Z" stroke="#BDC3CD" stroke-width="0.52"/>
<path d="M11.1956 13.7728C13.608 8.6008 18.8395 5.00927 24.8934 4.98178V4.91765C24.8934 4.881 24.9208 4.85352 24.9574 4.85352C18.7892 4.85352 13.4618 8.5275 11.0356 13.8094C11.0448 13.7957 11.0585 13.7911 11.0722 13.7911L11.191 13.7774H11.1956V13.7728Z" stroke="#BDC3CD" stroke-width="0.52"/>
<path d="M36.8778 29.6458C34.1045 33.1594 29.8233 35.4224 25.0259 35.4408V35.5049C25.0259 35.5415 24.9985 35.569 24.9619 35.569C29.8736 35.569 34.2507 33.2419 37.056 29.6274C37.0423 29.6366 37.0332 29.6412 37.0195 29.6412H36.8778V29.6458Z" stroke="#BDC3CD" stroke-width="0.52"/>
<path d="M25.0306 12.2885V4.98633H24.9025V12.3022L25.0306 12.2885Z" stroke="#BDC3CD" stroke-width="0.52"/>
<path d="M25.0297 35.5092V35.4453H24.9025V35.5092C24.9025 35.5457 24.9298 35.573 24.9661 35.573C25.0025 35.573 25.0297 35.5457 25.0297 35.5092Z" fill="#0E6696"/>
<path d="M14.9695 31.8536C14.9695 31.8536 14.9919 31.8715 15.0054 31.8804C14.9919 31.867 14.9784 31.8581 14.965 31.8491V31.8581L14.9695 31.8536Z" fill="#0E6696"/>
<path d="M24.898 12.3022L11.2001 13.7773C11.1819 13.8231 11.1544 13.869 11.1362 13.9148L24.898 12.4305V12.3022Z" stroke="#BDC3CD" stroke-width="0.52"/>
<path d="M24.898 25.3718L15.0381 31.7348C15.0746 31.7623 15.1066 31.7944 15.1386 31.8219L24.898 25.5229V25.3672V25.3718Z" stroke="#BDC3CD" stroke-width="0.52"/>
<path d="M15.061 31.872L15.1387 31.817C15.1022 31.7895 15.0702 31.7575 15.0381 31.73L14.9924 31.7575C14.965 31.7758 14.9558 31.8124 14.9696 31.8399C14.9833 31.8537 14.997 31.8628 15.0107 31.872C15.0107 31.872 15.0244 31.872 15.029 31.872C15.0427 31.872 15.0519 31.872 15.0656 31.8628L15.061 31.872Z" stroke="#BDC3CD" stroke-width="0.52"/>
<path d="M39.5416 15.921C39.5553 15.9668 39.569 16.008 39.5781 16.0492L39.6925 15.9759C39.6787 15.9301 39.665 15.8889 39.6559 15.8477L39.5416 15.921Z" fill="#0E6696"/>
<path d="M37.1383 11.1109L37.2892 11.0971C37.2618 11.0559 37.2298 11.0147 37.1978 10.978L37.0469 10.9964C37.0743 11.0376 37.1063 11.0742 37.1383 11.1155V11.1109Z" fill="#0E6696"/>
<path d="M24.8979 12.3018V12.4295L25.0297 12.4158V12.2881L24.8979 12.3018Z" fill="#0E6696"/>
<path d="M24.8979 25.5229L25.0306 25.4404V25.2847L24.8979 25.3717V25.5229Z" fill="#0E6696"/>
<path d="M37.0789 29.6045C37.0789 29.6045 37.0652 29.6272 37.056 29.6318C37.0652 29.6227 37.0744 29.6136 37.0789 29.6045Z" fill="#0E6696"/>
<path d="M25.0305 29.6458H36.8824C36.919 29.6 36.951 29.5588 36.9829 29.5176H25.0305V29.6458Z" stroke="#BDC3CD" stroke-width="0.52"/>
<path d="M37.015 29.5176H36.9785C36.9465 29.5634 36.9099 29.6046 36.8779 29.6458H37.015C37.015 29.6458 37.0425 29.6458 37.0516 29.6321C37.0608 29.6184 37.0653 29.6138 37.0745 29.6046C37.0745 29.6046 37.0745 29.5909 37.0745 29.5863C37.0745 29.5496 37.0471 29.5222 37.0105 29.5222L37.015 29.5176Z" stroke="#BDC3CD" stroke-width="0.52"/>
<path d="M24.8979 29.5814C24.8979 29.6179 24.9252 29.6453 24.9615 29.6453H25.0251V29.5176H24.9615C24.9252 29.5176 24.8979 29.5449 24.8979 29.5814Z" fill="#0E6696"/>
<path d="M104.334 4.91735V4.98148C109.228 4.99981 113.587 7.35904 116.351 10.9918L116.502 10.9735C113.705 7.25367 109.264 4.84863 104.271 4.84863C104.307 4.84863 104.334 4.87612 104.334 4.91277V4.91735Z" stroke="#BDC3CD" stroke-width="0.52"/>
<path d="M104.207 35.5095V35.4454C100.492 35.4316 97.0834 34.0711 94.4471 31.8218L94.3695 31.8767C94.3695 31.8767 94.3466 31.8859 94.3329 31.8859C94.3283 31.8859 94.3192 31.8859 94.3146 31.8859C96.9966 34.1902 100.474 35.5828 104.27 35.5828C104.234 35.5828 104.207 35.5553 104.207 35.5187V35.5095Z" stroke="#BDC3CD" stroke-width="0.52"/>
<path d="M119.462 20.2137C119.462 23.7136 118.279 26.9432 116.292 29.5178H116.328C116.365 29.5178 116.392 29.5453 116.392 29.5819C116.392 29.5911 116.392 29.5957 116.387 29.6002C118.398 27.0028 119.595 23.7457 119.595 20.2091C119.595 18.7432 119.385 17.3231 119.001 15.9717L118.887 16.045C119.261 17.3689 119.462 18.7615 119.462 20.2045V20.2137Z" stroke="#BDC3CD" stroke-width="0.52"/>
<path d="M118.846 15.9212L118.96 15.8479C118.448 14.1163 117.639 12.5129 116.593 11.0928L116.442 11.1065C117.511 12.5358 118.329 14.1621 118.846 15.9166V15.9212Z" stroke="#BDC3CD" stroke-width="0.52"/>
<path d="M94.2964 31.7623L94.3421 31.7348C91.1209 28.9404 89.0786 24.8129 89.0786 20.2135C89.0786 17.9642 89.5675 15.8341 90.4402 13.91H90.3991C90.3625 13.9192 90.3305 13.8963 90.3305 13.8551V13.8413C89.4441 15.7837 88.9507 17.9367 88.9507 20.2135C88.9507 24.8587 91.0159 29.0274 94.2736 31.8447C94.2598 31.8173 94.269 31.7806 94.2964 31.7623Z" stroke="#BDC3CD" stroke-width="0.52"/>
<path d="M90.5041 13.7728C92.9165 8.6008 98.148 5.00927 104.202 4.98178V4.91765C104.202 4.881 104.229 4.85352 104.266 4.85352C98.0978 4.85352 92.7703 8.5275 90.3442 13.8094C90.3533 13.7957 90.367 13.7911 90.3807 13.7911L90.4995 13.7774L90.5041 13.7728Z" stroke="#BDC3CD" stroke-width="0.52"/>
<path d="M116.191 29.6458C113.418 33.1594 109.136 35.4224 104.339 35.4408V35.5049C104.339 35.5415 104.312 35.569 104.275 35.569C109.187 35.569 113.564 33.2419 116.369 29.6274C116.355 29.6366 116.346 29.6412 116.333 29.6412H116.191V29.6458Z" stroke="#BDC3CD" stroke-width="0.52"/>
<path d="M104.335 12.2885V4.98633H104.207V12.3022L104.335 12.2885Z" stroke="#BDC3CD" stroke-width="0.52"/>
<path d="M104.334 35.5092V35.4453H104.207V35.5092C104.207 35.5457 104.234 35.573 104.27 35.573C104.306 35.573 104.334 35.5457 104.334 35.5092Z" fill="#0E6696"/>
<path d="M94.2781 31.8536C94.2781 31.8536 94.3005 31.8715 94.314 31.8804C94.3005 31.867 94.287 31.8581 94.2736 31.8491V31.8581H94.2781V31.8536Z" fill="#0E6696"/>
<path d="M90.3305 13.8454C90.3305 13.8454 90.3443 13.8227 90.3488 13.8091C90.3397 13.8182 90.3351 13.8318 90.3305 13.8454Z" fill="#0E6696"/>
<path d="M104.207 12.3022L90.5087 13.7773C90.4858 13.8231 90.463 13.869 90.4447 13.9148L104.207 12.4305V12.3022Z" stroke="#BDC3CD" stroke-width="0.52"/>
<path d="M104.207 25.3718L94.3466 31.7348C94.3832 31.7623 94.4152 31.7944 94.4471 31.8219L104.207 25.5229V25.3672V25.3718Z" stroke="#BDC3CD" stroke-width="0.52"/>
<path d="M94.3695 31.872L94.4473 31.817C94.4107 31.7895 94.3741 31.7575 94.3421 31.73L94.2964 31.7575C94.2689 31.7758 94.2598 31.8124 94.2735 31.8399C94.2872 31.8537 94.3009 31.8628 94.3147 31.872C94.3192 31.872 94.3284 31.872 94.333 31.872C94.3467 31.872 94.3558 31.872 94.3695 31.8628V31.872Z" stroke="#BDC3CD" stroke-width="0.52"/>
<path d="M118.846 15.921C118.859 15.9668 118.873 16.008 118.882 16.0492L118.996 15.9759C118.983 15.9301 118.969 15.8889 118.96 15.8477L118.846 15.921Z" fill="#0E6696"/>
<path d="M90.3991 13.9145H90.4402C90.4585 13.8595 90.486 13.8183 90.5043 13.7725L90.3854 13.7862C90.3854 13.7862 90.3579 13.7954 90.3488 13.8045C90.3442 13.8183 90.3351 13.8274 90.3305 13.8412V13.8549C90.3305 13.8916 90.3671 13.9145 90.3991 13.9145Z" stroke="#BDC3CD" stroke-width="0.52"/>
<path d="M116.447 11.1109L116.598 11.0971C116.57 11.0559 116.538 11.0147 116.506 10.978L116.355 10.9964C116.383 11.0376 116.415 11.0742 116.447 11.1155V11.1109Z" fill="#0E6696"/>
<path d="M104.207 12.3018V12.4295L104.334 12.4158V12.2881L104.207 12.3018Z" fill="#0E6696"/>
<path d="M104.207 25.5229L104.335 25.4404V25.2847L104.207 25.3717V25.5229Z" fill="#0E6696"/>
<path d="M116.388 29.6045C116.388 29.6045 116.374 29.6272 116.365 29.6318C116.374 29.6227 116.383 29.6136 116.388 29.6045Z" fill="#0E6696"/>
<path d="M104.334 29.6458H116.186C116.223 29.6 116.255 29.5588 116.287 29.5176H104.334V29.6458Z" stroke="#BDC3CD" stroke-width="0.52"/>
<path d="M116.328 29.5222C116.365 29.5222 116.392 29.5496 116.392 29.5863C116.392 29.5909 116.388 29.6046 116.388 29.6046C116.378 29.6138 116.374 29.6184 116.365 29.6321C116.356 29.6458 116.328 29.6458 116.328 29.6458H116.191C116.223 29.6046 116.26 29.5634 116.292 29.5176H116.328V29.5222ZM116.328 29.5222H116.324" stroke="#BDC3CD" stroke-width="0.52"/>
<path d="M104.207 29.5814C104.207 29.6179 104.234 29.6453 104.27 29.6453H104.334V29.5176H104.27C104.234 29.5176 104.207 29.5449 104.207 29.5814Z" fill="#0E6696"/>
<path d="M76.5367 29.6458C73.7633 33.1594 69.4822 35.4224 64.6848 35.4408V35.5049C64.6848 35.5415 64.6573 35.569 64.6208 35.569C69.5325 35.569 73.9095 33.2419 76.7149 29.6274C76.7012 29.6366 76.6921 29.6412 76.6784 29.6412H76.5367V29.6458Z" stroke="#BDC3CD" stroke-width="0.52"/>
<path d="M79.8081 20.2137C79.8081 23.7136 78.6247 26.9432 76.6372 29.5178H76.6738C76.7103 29.5178 76.7377 29.5453 76.7377 29.5819C76.7377 29.5911 76.7377 29.5957 76.7332 29.6002C78.7435 27.0028 79.9406 23.7457 79.9406 20.2091C79.9406 18.7432 79.7304 17.3231 79.3466 15.9717L79.2324 16.045C79.6071 17.3689 79.8081 18.7615 79.8081 20.2045V20.2137Z" stroke="#BDC3CD" stroke-width="0.52"/>
<path d="M79.1958 15.9212L79.3101 15.8479C78.7983 14.1163 77.9896 12.5129 76.9433 11.0928L76.7925 11.1065C77.8617 12.5358 78.6795 14.1621 79.1958 15.9166V15.9212Z" stroke="#BDC3CD" stroke-width="0.52"/>
<path d="M64.6848 4.91735V4.98148C69.5781 4.99981 73.937 7.35904 76.7012 10.9918L76.852 10.9735C74.0558 7.25367 69.6147 4.84863 64.6208 4.84863C64.6573 4.84863 64.6848 4.87612 64.6848 4.91277V4.91735Z" stroke="#BDC3CD" stroke-width="0.52"/>
<path d="M64.5523 35.5095V35.4454C60.8331 35.4316 57.4292 34.0711 54.7929 31.8218L54.7152 31.8767C54.7152 31.8767 54.6924 31.8859 54.6787 31.8859C54.6787 31.8859 54.665 31.8859 54.6604 31.8859C57.3424 34.1902 60.8194 35.5828 64.6162 35.5828C64.5797 35.5828 64.5523 35.5553 64.5523 35.5187V35.5095Z" stroke="#BDC3CD" stroke-width="0.52"/>
<path d="M54.6421 31.7623L54.6878 31.7348C51.4667 28.9404 49.4243 24.8129 49.4243 20.2135C49.4243 17.9642 49.9132 15.8341 50.7859 13.91H50.7448C50.7082 13.9192 50.6762 13.8963 50.6762 13.8551V13.8413C49.7898 15.7837 49.2964 17.9367 49.2964 20.2135C49.2964 24.8587 51.3616 29.0274 54.6193 31.8447C54.6056 31.8173 54.6193 31.7806 54.6421 31.7623Z" stroke="#BDC3CD" stroke-width="0.52"/>
<path d="M50.8499 13.7728C53.2623 8.6008 58.4938 5.00927 64.5477 4.98178V4.91765C64.5477 4.881 64.5751 4.85352 64.6117 4.85352C58.4435 4.85352 53.1161 8.5275 50.6899 13.8094C50.6991 13.7957 50.7128 13.7911 50.7265 13.7911L50.8453 13.7774L50.8499 13.7728Z" stroke="#BDC3CD" stroke-width="0.52"/>
<path d="M64.6803 12.2885V4.98633H64.5522V12.3022L64.6803 12.2885Z" stroke="#BDC3CD" stroke-width="0.52"/>
<path d="M64.6163 29.6457C64.5797 29.6457 64.5522 29.6182 64.5522 29.5815V35.4453H64.6803V29.6503H64.6163V29.6457Z" stroke="#BDC3CD" stroke-width="0.52"/>
<path d="M64.6794 35.5092V35.4453H64.5522V35.5092C64.5522 35.5457 64.5795 35.573 64.6158 35.573C64.6522 35.573 64.6794 35.5457 64.6794 35.5092Z" stroke="#BDC3CD" stroke-width="0.52"/>
<path d="M64.5523 12.3022L50.8544 13.7773C50.8362 13.8231 50.8087 13.869 50.7905 13.9148L64.5523 12.4305V12.3022Z" stroke="#BDC3CD" stroke-width="0.52"/>
<path d="M64.5523 25.3718L54.6878 31.7348C54.7244 31.7623 54.7563 31.7944 54.7883 31.8219L64.5477 25.5229V25.3672L64.5523 25.3718Z" stroke="#BDC3CD" stroke-width="0.52"/>
<path d="M54.6238 31.8536C54.6238 31.8536 54.6462 31.8715 54.6597 31.8804C54.6462 31.867 54.6327 31.8581 54.6193 31.8491V31.8581L54.6238 31.8536Z" fill="#0E6696"/>
<path d="M88.946 9.72306C88.9369 9.69557 88.9095 9.67725 88.8775 9.67725L76.8519 10.9691C76.8793 11.0103 76.9113 11.047 76.9433 11.0882L88.6217 9.833L79.3055 15.8433C79.3192 15.8891 79.3329 15.9303 79.342 15.9716L88.9186 9.79177C88.9461 9.77345 88.9552 9.74596 88.946 9.71389V9.72306Z" stroke="#BDC3CD" stroke-width="0.52"/>
<path d="M50.6762 13.8454C50.6762 13.8454 50.69 13.8227 50.6945 13.8091C50.6854 13.8182 50.6808 13.8318 50.6762 13.8454Z" fill="#0E6696"/>
<path d="M79.1959 15.921C79.2096 15.9668 79.2233 16.008 79.2324 16.0492L79.3468 15.9759C79.333 15.9301 79.3193 15.8889 79.3102 15.8477L79.1959 15.921Z" fill="#0E6696"/>
<path d="M54.7153 31.872L54.793 31.817C54.7565 31.7895 54.7244 31.7575 54.6924 31.73L54.6467 31.7575C54.6193 31.7758 54.6101 31.8124 54.6239 31.8399C54.6376 31.8537 54.6513 31.8628 54.665 31.872C54.665 31.872 54.6787 31.872 54.6833 31.872C54.697 31.872 54.7062 31.872 54.7199 31.8628L54.7153 31.872Z" stroke="#BDC3CD" stroke-width="0.52"/>
<path d="M76.7881 11.1109L76.939 11.0971C76.9116 11.0559 76.8796 11.0147 76.8475 10.978L76.6967 10.9964C76.7241 11.0376 76.7561 11.0742 76.7881 11.1155V11.1109Z" fill="#0E6696"/>
<path d="M50.7448 13.9145H50.7859C50.8042 13.8595 50.8317 13.8183 50.85 13.7725L50.7311 13.7862C50.7311 13.7862 50.7036 13.7954 50.6945 13.8045C50.6945 13.8183 50.6808 13.8274 50.6762 13.8412V13.8549C50.6762 13.8916 50.7128 13.9145 50.7448 13.9145Z" stroke="#BDC3CD" stroke-width="0.52"/>
<path d="M64.5522 12.3018V12.4295L64.6794 12.4158V12.2881L64.5522 12.3018Z" fill="#0E6696"/>
<path d="M64.5522 25.5229L64.6803 25.4404V25.2847L64.5522 25.3717V25.5229Z" fill="#0E6696"/>
<path d="M76.7332 29.6045C76.7332 29.6045 76.7195 29.6272 76.7103 29.6318C76.7195 29.6227 76.7287 29.6136 76.7332 29.6045Z" fill="#0E6696"/>
<path d="M76.6693 29.5176H76.6328C76.6008 29.5634 76.5642 29.6046 76.5322 29.6458H76.6693C76.6693 29.6458 76.6968 29.6458 76.7059 29.6321C76.7151 29.6184 76.7196 29.6138 76.7288 29.6046C76.7288 29.6046 76.7334 29.5909 76.7334 29.5863C76.7334 29.5496 76.7059 29.5222 76.6693 29.5222V29.5176Z" fill="#0E6696"/>
<path d="M64.5522 29.5814C64.5522 29.6179 64.5795 29.6453 64.6158 29.6453H64.6794V29.5176H64.6158C64.5795 29.5176 64.5522 29.5449 64.5522 29.5814Z" fill="#0E6696"/>
<path d="M24.962 29.6457C24.9254 29.6457 24.8979 29.6182 24.8979 29.5815V35.4453H25.026V29.6503H24.962V29.6457Z" fill="#0E6696" stroke="#0E6696" stroke-width="1.28" stroke-linecap="round" stroke-linejoin="round"/>
<path d="M24.8979 25.3716L25.0306 25.2846V12.4165L24.8979 12.4302V25.3716Z" fill="#0E6696" stroke="#0E6696" stroke-width="1.28" stroke-linecap="round" stroke-linejoin="round"/>
<path d="M24.8979 29.5817C24.8979 29.545 24.9254 29.5175 24.962 29.5175H25.026V25.4404L24.8979 25.5229V29.5817Z" fill="#0E6696" stroke="#0E6696" stroke-width="1.28" stroke-linecap="round" stroke-linejoin="round"/>
<path d="M25.0305 12.4167L37.1383 11.1157C37.1109 11.0745 37.0789 11.0378 37.0469 10.9966L25.0305 12.2884V12.4167Z" fill="#0E6696" stroke="#0E6696" stroke-width="1.28" stroke-linecap="round" stroke-linejoin="round"/>
<path d="M49.2918 9.72306C49.2827 9.69557 49.2553 9.67725 49.2233 9.67725L37.1977 10.9691C37.2251 11.0103 37.2571 11.047 37.2891 11.0882L48.9674 9.833L39.6558 15.8433C39.6695 15.8891 39.6832 15.9303 39.6924 15.9716L49.269 9.79177C49.2964 9.77345 49.3055 9.74596 49.2964 9.71389V9.72306H49.2918Z" fill="#0E6696" stroke="#0E6696" stroke-width="1.28" stroke-linecap="round" stroke-linejoin="round"/>
<path d="M25.0305 25.4406L39.5781 16.0541C39.5644 16.0082 39.5507 15.967 39.5416 15.9258L25.0305 25.2894V25.4452V25.4406Z" fill="#0E6696" stroke="#0E6696" stroke-width="1.28" stroke-linecap="round" stroke-linejoin="round"/>
<path d="M64.5522 25.3716L64.6849 25.2846V12.4165L64.5522 12.4302V25.3716Z" fill="#0E6696" stroke="#0E6696" stroke-width="1.28" stroke-linecap="round" stroke-linejoin="round"/>
<path d="M64.5522 29.5817C64.5522 29.545 64.5797 29.5175 64.6163 29.5175H64.6803V25.4404L64.5522 25.5229V29.5817Z" fill="#0E6696" stroke="#0E6696" stroke-width="1.28" stroke-linecap="round" stroke-linejoin="round"/>
<path d="M64.6802 12.4167L76.788 11.1157C76.7606 11.0745 76.7286 11.0378 76.6966 10.9966L64.6802 12.2884V12.4167Z" fill="#0E6696" stroke="#0E6696" stroke-width="1.28" stroke-linecap="round" stroke-linejoin="round"/>
<path d="M64.6802 25.4406L79.2278 16.0541C79.2141 16.0082 79.2004 15.967 79.1913 15.9258L64.6802 25.2894V25.4452V25.4406Z" fill="#0E6696" stroke="#0E6696" stroke-width="1.28" stroke-linecap="round" stroke-linejoin="round"/>
<path d="M64.6802 29.6458H76.5321C76.5687 29.6 76.6007 29.5588 76.6327 29.5176H64.6802V29.6458Z" fill="#0E6696" stroke="#0E6696" stroke-width="1.28" stroke-linecap="round" stroke-linejoin="round"/>
<path d="M104.271 29.6457C104.234 29.6457 104.207 29.6182 104.207 29.5815V35.4453H104.335V29.6503H104.271V29.6457Z" fill="#0E6696" stroke="#0E6696" stroke-width="1.28" stroke-linecap="round" stroke-linejoin="round"/>
<path d="M104.207 25.3716L104.335 25.2846V12.4165L104.207 12.4302V25.3716Z" fill="#0E6696" stroke="#0E6696" stroke-width="1.28" stroke-linecap="round" stroke-linejoin="round"/>
<path d="M104.207 29.5817C104.207 29.545 104.234 29.5175 104.271 29.5175H104.335V25.4404L104.207 25.5229V29.5817Z" fill="#0E6696" stroke="#0E6696" stroke-width="1.28" stroke-linecap="round" stroke-linejoin="round"/>
<path d="M104.334 12.4167L116.442 11.1157C116.415 11.0745 116.378 11.0378 116.351 10.9966L104.334 12.2884V12.4167Z" fill="#0E6696" stroke="#0E6696" stroke-width="1.28" stroke-linecap="round" stroke-linejoin="round"/>
<path d="M128.6 9.72306C128.591 9.69557 128.564 9.67725 128.532 9.67725L116.506 10.9691C116.534 11.0103 116.57 11.047 116.598 11.0882L128.276 9.833L118.964 15.8433C118.978 15.8891 118.992 15.9303 119.001 15.9716L128.573 9.79177C128.6 9.77345 128.609 9.74596 128.6 9.71389V9.72306Z" fill="#0E6696" stroke="#0E6696" stroke-width="1.28" stroke-linecap="round" stroke-linejoin="round"/>
<path d="M104.334 25.4406L118.882 16.0541C118.868 16.0082 118.855 15.967 118.846 15.9258L104.334 25.2894V25.4452V25.4406Z" fill="#0E6696" stroke="#0E6696" stroke-width="1.28" stroke-linecap="round" stroke-linejoin="round"/>
<path d="M26.3052 41.584H28.0323C28.2196 41.584 28.4024 41.6023 28.576 41.639C28.7496 41.6848 28.9278 41.781 29.106 41.9321C29.2568 42.0421 29.3802 42.1978 29.4715 42.404C29.5675 42.6056 29.6177 42.8346 29.6177 43.1049C29.6177 43.4714 29.4944 43.8012 29.2431 44.1035C28.9872 44.4196 28.6171 44.5846 28.1237 44.5937H27.0226V46.5223H26.3007V41.5886L26.3052 41.584ZM27.0271 43.8882H28.0963C28.3658 43.8882 28.5669 43.7966 28.7039 43.6271C28.8319 43.4668 28.8958 43.2835 28.8958 43.082C28.8958 42.9171 28.8684 42.7751 28.8182 42.6651C28.7633 42.5643 28.6857 42.4819 28.5897 42.4223C28.4389 42.3261 28.2653 42.2803 28.0734 42.2849H27.0271V43.8882Z" fill="#0E6696"/>
<path d="M30.4767 43.0041H31.1575V43.3798H31.1712C31.395 43.1049 31.692 42.9629 32.053 42.9629C32.3271 42.9629 32.5647 43.0591 32.7657 43.2332L32.2677 43.847C32.1261 43.7279 31.9753 43.6684 31.82 43.6684C31.6418 43.6684 31.4956 43.7279 31.3722 43.847C31.2306 43.9616 31.162 44.1494 31.1529 44.4059V46.5223H30.4721V43.0087L30.4767 43.0041Z" fill="#BDC3CD"/>
<path d="M33.0125 44.7587C33.0125 44.3876 33.0399 44.1036 33.0993 43.902C33.1587 43.7096 33.2547 43.5447 33.3826 43.4118C33.4785 43.2927 33.6065 43.1919 33.7755 43.1003C33.94 43.0133 34.1548 42.9675 34.4106 42.9629C34.6756 42.9629 34.8949 43.0133 35.064 43.1003C35.2285 43.1965 35.3564 43.2973 35.4432 43.4164C35.5803 43.5493 35.6717 43.7142 35.7311 43.9066C35.7859 44.1081 35.8133 44.3876 35.8133 44.7587C35.8133 45.1297 35.7859 45.4137 35.7311 45.6061C35.6762 45.7985 35.5803 45.968 35.4432 46.1101C35.3975 46.165 35.3473 46.2108 35.2833 46.2612C35.2285 46.3162 35.1554 46.3666 35.064 46.4032C34.8995 46.4994 34.6848 46.5498 34.4106 46.5544C34.1548 46.5544 33.94 46.4994 33.7755 46.4032C33.6065 46.3162 33.4785 46.2154 33.3826 46.1055C33.2547 45.9635 33.1633 45.7985 33.0993 45.6016C33.0399 45.4092 33.0125 45.1251 33.0125 44.7541V44.7587ZM35.128 44.7632C35.128 44.5113 35.1142 44.328 35.096 44.2135C35.0731 44.1036 35.0274 44.0028 34.9589 43.9203C34.9086 43.8424 34.8355 43.7783 34.735 43.7371C34.6391 43.6913 34.534 43.6684 34.4061 43.6684C34.2918 43.6684 34.1822 43.6913 34.0862 43.7371C33.9903 43.7829 33.9172 43.847 33.8578 43.9203C33.7984 44.0028 33.7573 44.1036 33.7298 44.2135C33.7024 44.328 33.6933 44.5113 33.6933 44.7587C33.6933 45.006 33.707 45.1801 33.7298 45.2946C33.7573 45.4092 33.7984 45.5145 33.8578 45.6016C33.9172 45.6703 33.9948 45.7298 34.0862 45.7802C34.1822 45.8306 34.2918 45.8535 34.4061 45.8535C34.5294 45.8535 34.6391 45.826 34.735 45.7802C34.831 45.7253 34.9086 45.6703 34.9589 45.6016C35.0274 45.5145 35.0686 45.4092 35.096 45.2946C35.1142 45.1847 35.128 45.0014 35.128 44.7632Z" fill="#BDC3CD"/>
<path d="M36.8641 43.0041H37.5449V46.9529C37.5449 47.2461 37.449 47.4843 37.2708 47.663C37.088 47.8417 36.8504 47.9379 36.5535 47.9379H36.2885V47.2782H36.4804C36.7316 47.2782 36.8596 47.1545 36.8596 46.9026V43.0041H36.8641ZM36.8641 41.584H37.5449V42.2849H36.8641V41.584Z" fill="#BDC3CD"/>
<path d="M39.2081 45.0287C39.2081 45.3128 39.2857 45.5281 39.4411 45.6747C39.5873 45.8258 39.7792 45.8991 40.0168 45.8991C40.2909 45.8991 40.5422 45.7846 40.7569 45.5601L41.2504 45.9953C40.9032 46.3756 40.4965 46.568 40.0259 46.5634C39.8477 46.5634 39.6741 46.5359 39.505 46.4809C39.4182 46.4534 39.336 46.4122 39.2537 46.3618C39.1669 46.316 39.0893 46.2656 39.0162 46.2015C38.8745 46.0686 38.7557 45.8854 38.6689 45.6563C38.573 45.4319 38.5227 45.1387 38.5227 44.7768C38.5227 44.4149 38.5638 44.14 38.6506 43.911C38.7375 43.6773 38.8425 43.4895 38.975 43.3567C39.1075 43.2238 39.2629 43.1185 39.4319 43.0589C39.5964 42.9994 39.7609 42.9673 39.9208 42.9673C40.3092 42.9673 40.6382 43.1047 40.9032 43.3658C41.1773 43.6315 41.3144 43.9934 41.3189 44.4561V45.0379H39.2035V45.0287H39.2081ZM40.6427 44.447C40.6336 44.1721 40.565 43.966 40.428 43.8239C40.2955 43.6865 40.131 43.6224 39.9254 43.6224C39.7198 43.6224 39.5507 43.6911 39.4228 43.8239C39.2949 43.966 39.2218 44.1721 39.2081 44.447H40.6473H40.6427Z" fill="#BDC3CD"/>
<path d="M44.7868 45.9544C44.636 46.1331 44.4624 46.2705 44.2659 46.3804C44.0649 46.495 43.8319 46.5545 43.5714 46.5591C43.1739 46.5591 42.8221 46.4171 42.5206 46.1377C42.2053 45.8536 42.0454 45.4001 42.0363 44.7679C42.0454 44.1312 42.2053 43.6685 42.5206 43.3799C42.8221 43.0958 43.1739 42.9584 43.576 42.963C43.841 42.963 44.0695 43.0226 44.2705 43.1325C44.4715 43.2424 44.6451 43.3936 44.7914 43.5723L44.2888 44.035C44.1151 43.7967 43.8867 43.6731 43.5988 43.6639C43.0186 43.6547 42.7262 44.0212 42.717 44.7633C42.7262 45.5009 43.0186 45.8628 43.5988 45.8536C43.8867 45.8536 44.1151 45.7254 44.2888 45.4871L44.7914 45.9498L44.7868 45.9544Z" fill="#BDC3CD"/>
<path d="M45.5361 41.9367H46.2169V43.0087H46.7149V43.5492H46.2169V45.597C46.2169 45.7756 46.2946 45.8626 46.459 45.8581H46.7149V46.5177H46.3585C46.1164 46.5177 45.9245 46.4399 45.7737 46.2887C45.6183 46.1421 45.5407 45.9314 45.5407 45.6519V43.5446H45.198V43.0041H45.5407V41.9321H45.5361V41.9367Z" fill="#BDC3CD"/>
<path d="M49.4106 41.5839H52.4535V42.2848H50.1325V43.6957H52.1154V44.3554H50.1325V45.8076H52.4535V46.5085H49.4106V41.5747V41.5839Z" fill="#0E6696"/>
<path d="M53.0064 43.0039H53.8197L54.4913 44.14L55.1676 43.0039H55.9808L54.834 44.7218L56.0265 46.5176H55.2132L54.4868 45.3448L53.7649 46.5176H52.9516L54.1121 44.7218L53.0019 43.0039H53.0064Z" fill="#BDC3CD"/>
<path d="M57.3013 45.0287C57.3013 45.3128 57.3789 45.5281 57.5343 45.6747C57.6805 45.8258 57.8724 45.8991 58.11 45.8991C58.3841 45.8991 58.6354 45.7846 58.8501 45.5601L59.3436 45.9953C58.9964 46.3756 58.5897 46.568 58.1191 46.5634C57.9409 46.5634 57.7673 46.5359 57.5982 46.4809C57.5114 46.4534 57.4292 46.4122 57.3469 46.3618C57.2601 46.316 57.1825 46.2656 57.1094 46.2015C56.9677 46.0686 56.8489 45.8854 56.7621 45.6563C56.6662 45.4319 56.6159 45.1387 56.6159 44.7768C56.6159 44.4149 56.657 44.14 56.7438 43.911C56.8306 43.6773 56.9357 43.4895 57.0682 43.3567C57.2053 43.2192 57.3561 43.1185 57.5251 43.0589C57.6896 42.9994 57.8541 42.9673 58.014 42.9673C58.4024 42.9673 58.7313 43.1047 58.9963 43.3658C59.2705 43.6315 59.4076 43.9934 59.4121 44.4561V45.0379H57.2967H57.3013V45.0287ZM58.7359 44.447C58.7268 44.1721 58.6582 43.966 58.5212 43.8239C58.3887 43.6865 58.2242 43.6224 58.0186 43.6224C57.813 43.6224 57.6439 43.6911 57.516 43.8239C57.3881 43.966 57.315 44.1721 57.3013 44.447H58.7405H58.7359Z" fill="#BDC3CD"/>
<path d="M62.88 45.9544C62.7292 46.1331 62.5556 46.2705 62.3591 46.3804C62.1581 46.495 61.9251 46.5545 61.6646 46.5591C61.2671 46.5591 60.9153 46.4171 60.6138 46.1377C60.2985 45.8536 60.1386 45.4001 60.1295 44.7679C60.1386 44.1312 60.2985 43.6685 60.6138 43.3799C60.9153 43.0958 61.2671 42.9584 61.6692 42.963C61.9342 42.963 62.1672 43.0226 62.3637 43.1325C62.5647 43.2424 62.7383 43.3936 62.8846 43.5723L62.3774 44.035C62.2038 43.7967 61.9753 43.6731 61.6875 43.6639C61.1072 43.6547 60.8148 44.0212 60.8057 44.7633C60.8148 45.5009 61.1072 45.8628 61.6875 45.8536C61.9753 45.8536 62.2038 45.7254 62.3774 45.4871L62.8846 45.9498H62.88V45.9544Z" fill="#BDC3CD"/>
<path d="M63.5928 43.0039H64.2735V45.0974C64.2735 45.3356 64.3375 45.5189 64.4654 45.6517C64.5934 45.7846 64.7533 45.8533 64.9498 45.8533C65.1462 45.8533 65.3061 45.7846 65.4295 45.6517C65.5574 45.5189 65.6214 45.3356 65.6214 45.0974V43.0039H66.3022V46.5176H65.6214V46.1419H65.6077C65.3838 46.4168 65.0914 46.5588 64.7304 46.5588C64.4472 46.5588 64.1959 46.4488 63.972 46.2427C63.7253 46.0411 63.5973 45.7388 63.5973 45.3448V43.0085L63.5928 43.0039Z" fill="#BDC3CD"/>
<path d="M67.481 41.9367H68.1618V43.0087H68.6552V43.5492H68.1618V45.597C68.1572 45.7756 68.2394 45.8626 68.4039 45.8581H68.6598V46.5177H68.3034C68.0613 46.5177 67.8694 46.4399 67.7186 46.2887C67.5632 46.1421 67.4856 45.9314 67.4856 45.6519V43.5446H67.1429V43.0041H67.4856V41.9321L67.481 41.9367Z" fill="#BDC3CD"/>
<path d="M69.5187 41.584H70.2V42.2849H69.5187V41.584ZM69.5187 43.0041H70.2V46.5177H69.5187V43.0041Z" fill="#BDC3CD"/>
<path d="M71.127 44.7587C71.127 44.3876 71.1544 44.1036 71.2138 43.902C71.2732 43.7096 71.3692 43.5447 71.4971 43.4118C71.5885 43.2927 71.721 43.1919 71.89 43.1003C72.0545 43.0133 72.2692 42.9675 72.5251 42.9629C72.7901 42.9629 73.0094 43.0133 73.1739 43.1003C73.3384 43.1965 73.4663 43.2973 73.5531 43.4164C73.6856 43.5493 73.7816 43.7142 73.841 43.9066C73.8912 44.1081 73.9232 44.3876 73.9232 44.7587C73.9232 45.1297 73.8958 45.4137 73.841 45.6061C73.7862 45.7985 73.6902 45.968 73.5531 46.1101C73.5074 46.165 73.4572 46.2108 73.3932 46.2612C73.3384 46.3162 73.2653 46.3666 73.1739 46.4032C73.0094 46.4994 72.7947 46.5498 72.5205 46.5544C72.2647 46.5544 72.0499 46.4994 71.8855 46.4032C71.7164 46.3162 71.5885 46.2154 71.4925 46.1055C71.3646 45.9635 71.2732 45.7985 71.2092 45.6016C71.1499 45.4092 71.1224 45.1251 71.1224 44.7541H71.127V44.7587ZM73.2424 44.7632C73.2424 44.5113 73.2287 44.328 73.2105 44.2135C73.1876 44.1036 73.1419 44.0028 73.078 43.9203C73.0277 43.8424 72.9546 43.7783 72.8541 43.7371C72.7581 43.6913 72.653 43.6684 72.5251 43.6684C72.4109 43.6684 72.3012 43.6913 72.2053 43.7371C72.1093 43.7829 72.0362 43.847 71.9768 43.9203C71.9174 44.0028 71.8763 44.1036 71.8489 44.2135C71.8215 44.328 71.8124 44.5113 71.8124 44.7587C71.8124 45.006 71.8261 45.1801 71.8489 45.2946C71.8763 45.4092 71.9174 45.5145 71.9768 45.6016C72.0362 45.6703 72.1139 45.7298 72.2053 45.7802C72.3012 45.8306 72.4109 45.8535 72.5251 45.8535C72.6485 45.8535 72.7581 45.826 72.8541 45.7802C72.95 45.7253 73.0277 45.6703 73.078 45.6016C73.1465 45.5145 73.1876 45.4092 73.2105 45.2946C73.2287 45.1847 73.2424 45.0014 73.2424 44.7632Z" fill="#BDC3CD"/>
<path d="M74.8918 43.0041H75.5726V43.3798H75.5863C75.8102 43.1049 76.1072 42.9629 76.4681 42.9629C76.7514 42.9629 77.0073 43.0637 77.2403 43.2698C77.4733 43.4805 77.5921 43.7829 77.6058 44.186V46.5223H76.925V44.4288C76.925 44.1814 76.8611 43.9982 76.7331 43.8654C76.6098 43.7325 76.4499 43.6684 76.2534 43.6684C76.0569 43.6684 75.897 43.7325 75.7691 43.8654C75.6412 43.9936 75.5772 44.1814 75.5772 44.4288V46.5223H74.8964V43.0087L74.8918 43.0041Z" fill="#BDC3CD"/>
<path d="M80.594 41.584H82.3211C82.5084 41.584 82.6912 41.6023 82.8648 41.639C83.0384 41.6848 83.2166 41.781 83.3948 41.9321C83.5456 42.0421 83.6689 42.1978 83.7603 42.404C83.8562 42.6056 83.9065 42.8346 83.9065 43.1049C83.9065 43.4714 83.7831 43.8012 83.5318 44.1035C83.276 44.4196 82.9059 44.5846 82.4124 44.5937H81.3113V46.5223H80.5894V41.5886H80.594V41.584ZM81.3159 43.8882H82.385C82.6546 43.8882 82.8556 43.7966 82.9927 43.6317C83.1206 43.4714 83.1846 43.2881 83.1846 43.0866C83.1846 42.9216 83.1572 42.7796 83.1069 42.6697C83.0521 42.5689 82.9744 42.4864 82.8785 42.4269C82.7277 42.3307 82.5586 42.2849 82.3622 42.2895H81.3159V43.8928V43.8882Z" fill="#0E6696"/>
<path d="M84.7746 41.584H85.4554V45.6153C85.4554 45.7756 85.5422 45.8581 85.7112 45.8581H85.9443V46.5177H85.6381C85.3868 46.5177 85.1858 46.4536 85.0259 46.3253C84.8568 46.1971 84.77 45.9772 84.77 45.6703V41.584H84.7746Z" fill="#BDC3CD"/>
<path d="M88.4755 46.2107H88.4618C88.4024 46.3298 88.3019 46.4214 88.1694 46.4764C88.0369 46.5359 87.8587 46.5634 87.6257 46.5634C87.2464 46.5634 86.954 46.4535 86.7484 46.2519C86.5337 46.0549 86.424 45.7984 86.424 45.4915C86.424 45.1845 86.52 44.9509 86.7073 44.7539C86.8946 44.5524 87.1688 44.4562 87.5297 44.447H88.4755V44.0759C88.4801 43.7644 88.247 43.6132 87.781 43.6224C87.6119 43.6224 87.4749 43.6407 87.3789 43.6774C87.2738 43.7232 87.1962 43.7919 87.1368 43.8973L86.5976 43.4758C86.8581 43.1277 87.2419 42.9536 87.7444 42.9627C88.1739 42.9627 88.512 43.0406 88.7679 43.2147C89.0238 43.3934 89.1517 43.6957 89.1563 44.1217V46.5222H88.4755V46.2107ZM88.4755 45.0288H87.6576C87.2601 45.0379 87.0637 45.18 87.0682 45.4502C87.0682 45.5694 87.1231 45.6701 87.2236 45.7572C87.3195 45.8534 87.484 45.8946 87.7125 45.8946C87.9957 45.8946 88.2013 45.8671 88.3156 45.7892C88.4252 45.7159 88.4755 45.5464 88.4755 45.2807V45.0288Z" fill="#BDC3CD"/>
<path d="M90.2848 43.0041H90.9656V43.3798H90.9793C91.2032 43.1049 91.5001 42.9629 91.8611 42.9629C92.1444 42.9629 92.4002 43.0637 92.6333 43.2698C92.8663 43.4805 92.9851 43.7829 92.9988 44.186V46.5223H92.318V44.4288C92.318 44.1814 92.254 43.9982 92.1261 43.8654C92.0027 43.7325 91.8428 43.6684 91.6463 43.6684C91.4499 43.6684 91.29 43.7325 91.162 43.8654C91.0341 43.9936 90.9701 44.1814 90.9701 44.4288V46.5223H90.2894V43.0087L90.2848 43.0041Z" fill="#BDC3CD"/>
<path d="M100.204 46.0962H98.8791L98.8151 45.4365H98.3445L98.2759 46.0962H96.9601L97.6134 42.4268H99.4776L100.209 46.0962H100.204ZM98.7877 44.7814C98.742 44.5111 98.7009 44.2088 98.6597 43.8789C98.6141 43.5445 98.5958 43.3338 98.5958 43.2468C98.5638 43.4163 98.5135 43.7003 98.4496 44.0943C98.4039 44.3508 98.3719 44.5798 98.3399 44.7814H98.7877Z" fill="#0E6696"/>
<path d="M101.808 46.0962H100.519V42.4268H101.808V46.0962Z" fill="#0E6696"/>
<path d="M99.3816 47.7592C101.415 47.7592 103.06 46.1925 103.06 44.2639C103.06 42.3353 101.415 40.7686 99.3816 40.7686C97.3484 40.7686 95.7036 42.3353 95.7036 44.2639C95.7036 46.1925 97.3484 47.7592 99.3816 47.7592Z" stroke="#0E6696" stroke-width="0.96" stroke-miterlimit="10"/>
</g>
<defs>
<clipPath id="clip0_2094_3723">
<rect width="140" height="51" fill="white"/>
</clipPath>
</defs>
</svg>
